<mxfile host="app.diagrams.net" modified="2024-02-08T23:25:28.306Z" agent="Mozilla/5.0 (Macintosh; Intel Mac OS X 10_15_7) AppleWebKit/537.36 (KHTML, like Gecko) Chrome/121.0.0.0 Safari/537.36" version="22.1.21" etag="GxFEcY7lC2CHQC2eQmsq" type="github">
  <diagram name="Page-1" id="3yI6l--KiYX39QNPwDms">
    <mxGraphModel>
      <root>
        <mxCell id="0" />
        <mxCell id="1" parent="0" />
      </root>
    </mxGraphModel>
  </diagram>
</mxfile>
